<mxfile host="app.diagrams.net" modified="2024-02-23T15:21:01.770Z" agent="Mozilla/5.0 (Macintosh; Intel Mac OS X 10_15_7) AppleWebKit/537.36 (KHTML, like Gecko) Chrome/122.0.0.0 Safari/537.36" etag="gnjeUX2zjckxf9fm2YZy" version="23.1.5" type="github">
  <diagram id="prtHgNgQTEPvFCAcTncT" name="Page-1">
    <mxGraphModel dx="1481" dy="801" grid="1" gridSize="10" guides="1" tooltips="1" connect="1" arrows="1" fold="1" page="1" pageScale="1" pageWidth="827" pageHeight="1169" math="0" shadow="0">
      <root>
        <mxCell id="0" />
        <mxCell id="1" parent="0" />
        <mxCell id="dNxyNK7c78bLwvsdeMH5-19" value="Surveys" style="swimlane;html=1;childLayout=stackLayout;resizeParent=1;resizeParentMax=0;horizontal=0;startSize=20;horizontalStack=0;" parent="1" vertex="1">
          <mxGeometry x="120" y="120" width="945" height="470" as="geometry" />
        </mxCell>
        <mxCell id="dNxyNK7c78bLwvsdeMH5-27" value="" style="edgeStyle=orthogonalEdgeStyle;rounded=0;orthogonalLoop=1;jettySize=auto;html=1;dashed=1;endArrow=none;endFill=0;" parent="dNxyNK7c78bLwvsdeMH5-19" source="dNxyNK7c78bLwvsdeMH5-24" target="dNxyNK7c78bLwvsdeMH5-26" edge="1">
          <mxGeometry relative="1" as="geometry" />
        </mxCell>
        <mxCell id="37Fz3xNmjwRVtcNxeAjS-9" value="Usuario" style="swimlane;html=1;startSize=20;horizontal=0;" parent="dNxyNK7c78bLwvsdeMH5-19" vertex="1">
          <mxGeometry x="20" width="925" height="100" as="geometry" />
        </mxCell>
        <mxCell id="37Fz3xNmjwRVtcNxeAjS-11" value="Responde pregunta" style="whiteSpace=wrap;html=1;fontSize=10;" parent="37Fz3xNmjwRVtcNxeAjS-9" vertex="1">
          <mxGeometry x="310" y="30" width="90" height="30" as="geometry" />
        </mxCell>
        <mxCell id="dNxyNK7c78bLwvsdeMH5-20" value="SPN/ SPT" style="swimlane;html=1;startSize=20;horizontal=0;" parent="dNxyNK7c78bLwvsdeMH5-19" vertex="1">
          <mxGeometry x="20" y="100" width="925" height="130" as="geometry" />
        </mxCell>
        <mxCell id="dNxyNK7c78bLwvsdeMH5-24" value="Obtener preguntas survey x" style="rounded=0;whiteSpace=wrap;html=1;fontFamily=Helvetica;fontSize=10;fontColor=#000000;align=center;" parent="dNxyNK7c78bLwvsdeMH5-20" vertex="1">
          <mxGeometry x="120" y="30" width="80" height="60" as="geometry" />
        </mxCell>
        <mxCell id="37Fz3xNmjwRVtcNxeAjS-6" value="Muestra pregunta n" style="whiteSpace=wrap;html=1;fontSize=10;" parent="dNxyNK7c78bLwvsdeMH5-20" vertex="1">
          <mxGeometry x="310" y="38.75" width="90" height="30" as="geometry" />
        </mxCell>
        <mxCell id="37Fz3xNmjwRVtcNxeAjS-12" value="Guarda en memoria la respuesta" style="whiteSpace=wrap;html=1;fontSize=10;" parent="dNxyNK7c78bLwvsdeMH5-20" vertex="1">
          <mxGeometry x="440" y="20" width="120" height="50" as="geometry" />
        </mxCell>
        <mxCell id="37Fz3xNmjwRVtcNxeAjS-22" value="" style="edgeStyle=orthogonalEdgeStyle;rounded=0;orthogonalLoop=1;jettySize=auto;html=1;" parent="dNxyNK7c78bLwvsdeMH5-20" source="37Fz3xNmjwRVtcNxeAjS-14" target="37Fz3xNmjwRVtcNxeAjS-21" edge="1">
          <mxGeometry relative="1" as="geometry" />
        </mxCell>
        <mxCell id="37Fz3xNmjwRVtcNxeAjS-31" value="NO" style="edgeLabel;html=1;align=center;verticalAlign=middle;resizable=0;points=[];" parent="37Fz3xNmjwRVtcNxeAjS-22" vertex="1" connectable="0">
          <mxGeometry x="-0.1955" relative="1" as="geometry">
            <mxPoint as="offset" />
          </mxGeometry>
        </mxCell>
        <mxCell id="37Fz3xNmjwRVtcNxeAjS-14" value="Faltan preguntas?" style="rhombus;whiteSpace=wrap;html=1;fontSize=10;" parent="dNxyNK7c78bLwvsdeMH5-20" vertex="1">
          <mxGeometry x="600" y="10" width="70" height="71.25" as="geometry" />
        </mxCell>
        <mxCell id="37Fz3xNmjwRVtcNxeAjS-15" value="" style="edgeStyle=orthogonalEdgeStyle;rounded=0;orthogonalLoop=1;jettySize=auto;html=1;" parent="dNxyNK7c78bLwvsdeMH5-20" source="37Fz3xNmjwRVtcNxeAjS-12" target="37Fz3xNmjwRVtcNxeAjS-14" edge="1">
          <mxGeometry relative="1" as="geometry" />
        </mxCell>
        <mxCell id="37Fz3xNmjwRVtcNxeAjS-20" value="SI" style="edgeStyle=orthogonalEdgeStyle;rounded=0;orthogonalLoop=1;jettySize=auto;html=1;entryX=0.5;entryY=1;entryDx=0;entryDy=0;exitX=0.5;exitY=1;exitDx=0;exitDy=0;" parent="dNxyNK7c78bLwvsdeMH5-20" source="37Fz3xNmjwRVtcNxeAjS-14" target="37Fz3xNmjwRVtcNxeAjS-6" edge="1">
          <mxGeometry relative="1" as="geometry" />
        </mxCell>
        <mxCell id="37Fz3xNmjwRVtcNxeAjS-21" value="Guarda todas las respuestas" style="whiteSpace=wrap;html=1;fontSize=10;" parent="dNxyNK7c78bLwvsdeMH5-20" vertex="1">
          <mxGeometry x="730" y="27.5" width="90" height="35" as="geometry" />
        </mxCell>
        <mxCell id="dNxyNK7c78bLwvsdeMH5-21" value="SPT Back End" style="swimlane;html=1;startSize=20;horizontal=0;" parent="dNxyNK7c78bLwvsdeMH5-19" vertex="1">
          <mxGeometry x="20" y="230" width="925" height="120" as="geometry" />
        </mxCell>
        <mxCell id="dNxyNK7c78bLwvsdeMH5-26" value="Busca BD las preguntas de" style="rounded=0;whiteSpace=wrap;html=1;fontFamily=Helvetica;fontSize=10;fontColor=#000000;align=center;" parent="dNxyNK7c78bLwvsdeMH5-21" vertex="1">
          <mxGeometry x="120" y="30" width="80" height="40" as="geometry" />
        </mxCell>
        <mxCell id="37Fz3xNmjwRVtcNxeAjS-4" value="Regresa Preguntas" style="whiteSpace=wrap;html=1;fontSize=10;" parent="dNxyNK7c78bLwvsdeMH5-21" vertex="1">
          <mxGeometry x="230" y="30" width="80" height="40" as="geometry" />
        </mxCell>
        <mxCell id="37Fz3xNmjwRVtcNxeAjS-25" value="Guarda en la BD las respuestas" style="whiteSpace=wrap;html=1;fontSize=10;" parent="dNxyNK7c78bLwvsdeMH5-21" vertex="1">
          <mxGeometry x="722.5" y="35" width="105" height="30" as="geometry" />
        </mxCell>
        <mxCell id="dNxyNK7c78bLwvsdeMH5-22" value="BD Surveys" style="swimlane;html=1;startSize=20;horizontal=0;" parent="dNxyNK7c78bLwvsdeMH5-19" vertex="1">
          <mxGeometry x="20" y="350" width="925" height="120" as="geometry" />
        </mxCell>
        <mxCell id="37Fz3xNmjwRVtcNxeAjS-1" value="" style="shape=datastore;whiteSpace=wrap;html=1;" parent="dNxyNK7c78bLwvsdeMH5-22" vertex="1">
          <mxGeometry x="145" y="40" width="30" height="40" as="geometry" />
        </mxCell>
        <mxCell id="37Fz3xNmjwRVtcNxeAjS-27" value="" style="shape=datastore;whiteSpace=wrap;html=1;" parent="dNxyNK7c78bLwvsdeMH5-22" vertex="1">
          <mxGeometry x="760" y="20" width="30" height="40" as="geometry" />
        </mxCell>
        <mxCell id="37Fz3xNmjwRVtcNxeAjS-2" style="edgeStyle=orthogonalEdgeStyle;rounded=0;orthogonalLoop=1;jettySize=auto;html=1;" parent="dNxyNK7c78bLwvsdeMH5-19" source="dNxyNK7c78bLwvsdeMH5-26" target="37Fz3xNmjwRVtcNxeAjS-1" edge="1">
          <mxGeometry relative="1" as="geometry" />
        </mxCell>
        <mxCell id="37Fz3xNmjwRVtcNxeAjS-5" value="" style="edgeStyle=orthogonalEdgeStyle;rounded=0;orthogonalLoop=1;jettySize=auto;html=1;" parent="dNxyNK7c78bLwvsdeMH5-19" source="37Fz3xNmjwRVtcNxeAjS-1" target="37Fz3xNmjwRVtcNxeAjS-4" edge="1">
          <mxGeometry relative="1" as="geometry" />
        </mxCell>
        <mxCell id="37Fz3xNmjwRVtcNxeAjS-8" style="edgeStyle=orthogonalEdgeStyle;rounded=0;orthogonalLoop=1;jettySize=auto;html=1;exitX=0.5;exitY=0;exitDx=0;exitDy=0;entryX=0;entryY=0.5;entryDx=0;entryDy=0;" parent="dNxyNK7c78bLwvsdeMH5-19" source="37Fz3xNmjwRVtcNxeAjS-4" target="37Fz3xNmjwRVtcNxeAjS-6" edge="1">
          <mxGeometry relative="1" as="geometry" />
        </mxCell>
        <mxCell id="37Fz3xNmjwRVtcNxeAjS-13" style="edgeStyle=orthogonalEdgeStyle;rounded=0;orthogonalLoop=1;jettySize=auto;html=1;entryX=0.5;entryY=0;entryDx=0;entryDy=0;" parent="dNxyNK7c78bLwvsdeMH5-19" source="37Fz3xNmjwRVtcNxeAjS-11" target="37Fz3xNmjwRVtcNxeAjS-12" edge="1">
          <mxGeometry relative="1" as="geometry" />
        </mxCell>
        <mxCell id="37Fz3xNmjwRVtcNxeAjS-10" style="edgeStyle=orthogonalEdgeStyle;rounded=0;orthogonalLoop=1;jettySize=auto;html=1;exitX=0.5;exitY=0;exitDx=0;exitDy=0;entryX=0.5;entryY=1;entryDx=0;entryDy=0;" parent="dNxyNK7c78bLwvsdeMH5-19" source="37Fz3xNmjwRVtcNxeAjS-6" target="37Fz3xNmjwRVtcNxeAjS-11" edge="1">
          <mxGeometry relative="1" as="geometry">
            <mxPoint x="375" y="70" as="targetPoint" />
          </mxGeometry>
        </mxCell>
        <mxCell id="37Fz3xNmjwRVtcNxeAjS-26" value="" style="edgeStyle=orthogonalEdgeStyle;rounded=0;orthogonalLoop=1;jettySize=auto;html=1;" parent="dNxyNK7c78bLwvsdeMH5-19" source="37Fz3xNmjwRVtcNxeAjS-21" target="37Fz3xNmjwRVtcNxeAjS-25" edge="1">
          <mxGeometry relative="1" as="geometry" />
        </mxCell>
        <mxCell id="37Fz3xNmjwRVtcNxeAjS-28" style="edgeStyle=orthogonalEdgeStyle;rounded=0;orthogonalLoop=1;jettySize=auto;html=1;entryX=0.5;entryY=0;entryDx=0;entryDy=0;" parent="dNxyNK7c78bLwvsdeMH5-19" source="37Fz3xNmjwRVtcNxeAjS-25" target="37Fz3xNmjwRVtcNxeAjS-27" edge="1">
          <mxGeometry relative="1" as="geometry" />
        </mxCell>
        <mxCell id="37Fz3xNmjwRVtcNxeAjS-32" value="Surveys" style="swimlane;html=1;childLayout=stackLayout;resizeParent=1;resizeParentMax=0;horizontal=0;startSize=20;horizontalStack=0;" parent="1" vertex="1">
          <mxGeometry x="120" y="640" width="945" height="470" as="geometry" />
        </mxCell>
        <mxCell id="37Fz3xNmjwRVtcNxeAjS-33" value="" style="edgeStyle=orthogonalEdgeStyle;rounded=0;orthogonalLoop=1;jettySize=auto;html=1;dashed=1;endArrow=none;endFill=0;" parent="37Fz3xNmjwRVtcNxeAjS-32" source="37Fz3xNmjwRVtcNxeAjS-37" target="37Fz3xNmjwRVtcNxeAjS-47" edge="1">
          <mxGeometry relative="1" as="geometry" />
        </mxCell>
        <mxCell id="37Fz3xNmjwRVtcNxeAjS-34" value="Usuario" style="swimlane;html=1;startSize=20;horizontal=0;" parent="37Fz3xNmjwRVtcNxeAjS-32" vertex="1">
          <mxGeometry x="20" width="925" height="100" as="geometry" />
        </mxCell>
        <mxCell id="37Fz3xNmjwRVtcNxeAjS-35" value="Responde pregunta" style="whiteSpace=wrap;html=1;fontSize=10;" parent="37Fz3xNmjwRVtcNxeAjS-34" vertex="1">
          <mxGeometry x="310" y="30" width="90" height="30" as="geometry" />
        </mxCell>
        <mxCell id="37Fz3xNmjwRVtcNxeAjS-66" value="" style="edgeStyle=orthogonalEdgeStyle;rounded=0;orthogonalLoop=1;jettySize=auto;html=1;" parent="37Fz3xNmjwRVtcNxeAjS-34" source="37Fz3xNmjwRVtcNxeAjS-63" target="37Fz3xNmjwRVtcNxeAjS-65" edge="1">
          <mxGeometry relative="1" as="geometry" />
        </mxCell>
        <mxCell id="37Fz3xNmjwRVtcNxeAjS-63" value="Cierra la app" style="whiteSpace=wrap;html=1;fontSize=10;" parent="37Fz3xNmjwRVtcNxeAjS-34" vertex="1">
          <mxGeometry x="597.5" y="28.75" width="115" height="32.5" as="geometry" />
        </mxCell>
        <mxCell id="37Fz3xNmjwRVtcNxeAjS-65" value="Fin" style="ellipse;whiteSpace=wrap;html=1;fontSize=10;" parent="37Fz3xNmjwRVtcNxeAjS-34" vertex="1">
          <mxGeometry x="770" y="22.5" width="50" height="45" as="geometry" />
        </mxCell>
        <mxCell id="37Fz3xNmjwRVtcNxeAjS-36" value="SPN/ SPT" style="swimlane;html=1;startSize=20;horizontal=0;" parent="37Fz3xNmjwRVtcNxeAjS-32" vertex="1">
          <mxGeometry x="20" y="100" width="925" height="130" as="geometry" />
        </mxCell>
        <mxCell id="37Fz3xNmjwRVtcNxeAjS-37" value="Obtener preguntas survey x" style="rounded=0;whiteSpace=wrap;html=1;fontFamily=Helvetica;fontSize=10;fontColor=#000000;align=center;" parent="37Fz3xNmjwRVtcNxeAjS-36" vertex="1">
          <mxGeometry x="120" y="30" width="80" height="60" as="geometry" />
        </mxCell>
        <mxCell id="37Fz3xNmjwRVtcNxeAjS-38" value="Muestra pregunta 1" style="whiteSpace=wrap;html=1;fontSize=10;" parent="37Fz3xNmjwRVtcNxeAjS-36" vertex="1">
          <mxGeometry x="310" y="38.75" width="90" height="30" as="geometry" />
        </mxCell>
        <mxCell id="37Fz3xNmjwRVtcNxeAjS-62" value="" style="edgeStyle=orthogonalEdgeStyle;rounded=0;orthogonalLoop=1;jettySize=auto;html=1;" parent="37Fz3xNmjwRVtcNxeAjS-36" source="37Fz3xNmjwRVtcNxeAjS-39" target="37Fz3xNmjwRVtcNxeAjS-61" edge="1">
          <mxGeometry relative="1" as="geometry" />
        </mxCell>
        <mxCell id="37Fz3xNmjwRVtcNxeAjS-39" value="Guarda en memoria la respuesta" style="whiteSpace=wrap;html=1;fontSize=10;" parent="37Fz3xNmjwRVtcNxeAjS-36" vertex="1">
          <mxGeometry x="440" y="20" width="120" height="40" as="geometry" />
        </mxCell>
        <mxCell id="37Fz3xNmjwRVtcNxeAjS-61" value="Muestra pregunta 2" style="whiteSpace=wrap;html=1;fontSize=10;" parent="37Fz3xNmjwRVtcNxeAjS-36" vertex="1">
          <mxGeometry x="600" y="21.25" width="110" height="37.5" as="geometry" />
        </mxCell>
        <mxCell id="37Fz3xNmjwRVtcNxeAjS-46" value="SPT Back End" style="swimlane;html=1;startSize=20;horizontal=0;" parent="37Fz3xNmjwRVtcNxeAjS-32" vertex="1">
          <mxGeometry x="20" y="230" width="925" height="120" as="geometry" />
        </mxCell>
        <mxCell id="37Fz3xNmjwRVtcNxeAjS-47" value="Busca BD las preguntas de" style="rounded=0;whiteSpace=wrap;html=1;fontFamily=Helvetica;fontSize=10;fontColor=#000000;align=center;" parent="37Fz3xNmjwRVtcNxeAjS-46" vertex="1">
          <mxGeometry x="120" y="30" width="80" height="40" as="geometry" />
        </mxCell>
        <mxCell id="37Fz3xNmjwRVtcNxeAjS-48" value="Regresa Preguntas" style="whiteSpace=wrap;html=1;fontSize=10;" parent="37Fz3xNmjwRVtcNxeAjS-46" vertex="1">
          <mxGeometry x="230" y="30" width="80" height="40" as="geometry" />
        </mxCell>
        <mxCell id="37Fz3xNmjwRVtcNxeAjS-50" value="BD Surveys" style="swimlane;html=1;startSize=20;horizontal=0;" parent="37Fz3xNmjwRVtcNxeAjS-32" vertex="1">
          <mxGeometry x="20" y="350" width="925" height="120" as="geometry" />
        </mxCell>
        <mxCell id="37Fz3xNmjwRVtcNxeAjS-51" value="" style="shape=datastore;whiteSpace=wrap;html=1;" parent="37Fz3xNmjwRVtcNxeAjS-50" vertex="1">
          <mxGeometry x="145" y="40" width="30" height="40" as="geometry" />
        </mxCell>
        <mxCell id="37Fz3xNmjwRVtcNxeAjS-53" style="edgeStyle=orthogonalEdgeStyle;rounded=0;orthogonalLoop=1;jettySize=auto;html=1;" parent="37Fz3xNmjwRVtcNxeAjS-32" source="37Fz3xNmjwRVtcNxeAjS-47" target="37Fz3xNmjwRVtcNxeAjS-51" edge="1">
          <mxGeometry relative="1" as="geometry" />
        </mxCell>
        <mxCell id="37Fz3xNmjwRVtcNxeAjS-54" value="" style="edgeStyle=orthogonalEdgeStyle;rounded=0;orthogonalLoop=1;jettySize=auto;html=1;" parent="37Fz3xNmjwRVtcNxeAjS-32" source="37Fz3xNmjwRVtcNxeAjS-51" target="37Fz3xNmjwRVtcNxeAjS-48" edge="1">
          <mxGeometry relative="1" as="geometry" />
        </mxCell>
        <mxCell id="37Fz3xNmjwRVtcNxeAjS-55" style="edgeStyle=orthogonalEdgeStyle;rounded=0;orthogonalLoop=1;jettySize=auto;html=1;exitX=0.5;exitY=0;exitDx=0;exitDy=0;entryX=0;entryY=0.5;entryDx=0;entryDy=0;" parent="37Fz3xNmjwRVtcNxeAjS-32" source="37Fz3xNmjwRVtcNxeAjS-48" target="37Fz3xNmjwRVtcNxeAjS-38" edge="1">
          <mxGeometry relative="1" as="geometry" />
        </mxCell>
        <mxCell id="37Fz3xNmjwRVtcNxeAjS-56" style="edgeStyle=orthogonalEdgeStyle;rounded=0;orthogonalLoop=1;jettySize=auto;html=1;entryX=0.5;entryY=0;entryDx=0;entryDy=0;" parent="37Fz3xNmjwRVtcNxeAjS-32" source="37Fz3xNmjwRVtcNxeAjS-35" target="37Fz3xNmjwRVtcNxeAjS-39" edge="1">
          <mxGeometry relative="1" as="geometry" />
        </mxCell>
        <mxCell id="37Fz3xNmjwRVtcNxeAjS-57" style="edgeStyle=orthogonalEdgeStyle;rounded=0;orthogonalLoop=1;jettySize=auto;html=1;exitX=0.5;exitY=0;exitDx=0;exitDy=0;entryX=0.5;entryY=1;entryDx=0;entryDy=0;" parent="37Fz3xNmjwRVtcNxeAjS-32" source="37Fz3xNmjwRVtcNxeAjS-38" target="37Fz3xNmjwRVtcNxeAjS-35" edge="1">
          <mxGeometry relative="1" as="geometry">
            <mxPoint x="375" y="70" as="targetPoint" />
          </mxGeometry>
        </mxCell>
        <mxCell id="37Fz3xNmjwRVtcNxeAjS-64" value="" style="edgeStyle=orthogonalEdgeStyle;rounded=0;orthogonalLoop=1;jettySize=auto;html=1;" parent="37Fz3xNmjwRVtcNxeAjS-32" source="37Fz3xNmjwRVtcNxeAjS-61" target="37Fz3xNmjwRVtcNxeAjS-63" edge="1">
          <mxGeometry relative="1" as="geometry" />
        </mxCell>
        <mxCell id="DLc_mvqa6RnwXc7KqKSA-1" value="Surveys" style="swimlane;html=1;childLayout=stackLayout;resizeParent=1;resizeParentMax=0;horizontal=0;startSize=20;horizontalStack=0;" vertex="1" parent="1">
          <mxGeometry x="1700" y="115" width="1020" height="460" as="geometry" />
        </mxCell>
        <mxCell id="DLc_mvqa6RnwXc7KqKSA-2" value="" style="edgeStyle=orthogonalEdgeStyle;rounded=0;orthogonalLoop=1;jettySize=auto;html=1;dashed=1;endArrow=none;endFill=0;" edge="1" parent="DLc_mvqa6RnwXc7KqKSA-1" source="DLc_mvqa6RnwXc7KqKSA-6" target="DLc_mvqa6RnwXc7KqKSA-16">
          <mxGeometry relative="1" as="geometry" />
        </mxCell>
        <mxCell id="DLc_mvqa6RnwXc7KqKSA-3" value="Usuario" style="swimlane;html=1;startSize=20;horizontal=0;" vertex="1" parent="DLc_mvqa6RnwXc7KqKSA-1">
          <mxGeometry x="20" width="1000" height="100" as="geometry" />
        </mxCell>
        <mxCell id="DLc_mvqa6RnwXc7KqKSA-4" value="Responde pregunta 1" style="whiteSpace=wrap;html=1;fontSize=10;" vertex="1" parent="DLc_mvqa6RnwXc7KqKSA-3">
          <mxGeometry x="310" y="30" width="90" height="30" as="geometry" />
        </mxCell>
        <mxCell id="DLc_mvqa6RnwXc7KqKSA-48" value="Responde pregunta n" style="whiteSpace=wrap;html=1;fontSize=10;" vertex="1" parent="DLc_mvqa6RnwXc7KqKSA-3">
          <mxGeometry x="720" y="30" width="90" height="30" as="geometry" />
        </mxCell>
        <mxCell id="DLc_mvqa6RnwXc7KqKSA-5" value="SPN/ SPT" style="swimlane;html=1;startSize=20;horizontal=0;" vertex="1" parent="DLc_mvqa6RnwXc7KqKSA-1">
          <mxGeometry x="20" y="100" width="1000" height="120" as="geometry" />
        </mxCell>
        <mxCell id="DLc_mvqa6RnwXc7KqKSA-6" value="Obtener preguntas survey x" style="rounded=0;whiteSpace=wrap;html=1;fontFamily=Helvetica;fontSize=10;fontColor=#000000;align=center;" vertex="1" parent="DLc_mvqa6RnwXc7KqKSA-5">
          <mxGeometry x="120" y="30" width="80" height="60" as="geometry" />
        </mxCell>
        <mxCell id="DLc_mvqa6RnwXc7KqKSA-7" value="Muestra pregunta 1" style="whiteSpace=wrap;html=1;fontSize=10;" vertex="1" parent="DLc_mvqa6RnwXc7KqKSA-5">
          <mxGeometry x="310" y="38.75" width="90" height="30" as="geometry" />
        </mxCell>
        <mxCell id="DLc_mvqa6RnwXc7KqKSA-8" value="Consume POST" style="whiteSpace=wrap;html=1;fontSize=10;" vertex="1" parent="DLc_mvqa6RnwXc7KqKSA-5">
          <mxGeometry x="440" y="20" width="120" height="50" as="geometry" />
        </mxCell>
        <mxCell id="DLc_mvqa6RnwXc7KqKSA-47" style="edgeStyle=orthogonalEdgeStyle;rounded=0;orthogonalLoop=1;jettySize=auto;html=1;exitX=1;exitY=0.5;exitDx=0;exitDy=0;" edge="1" parent="DLc_mvqa6RnwXc7KqKSA-5" source="DLc_mvqa6RnwXc7KqKSA-11" target="DLc_mvqa6RnwXc7KqKSA-44">
          <mxGeometry relative="1" as="geometry" />
        </mxCell>
        <mxCell id="DLc_mvqa6RnwXc7KqKSA-54" value="SI" style="edgeLabel;html=1;align=center;verticalAlign=middle;resizable=0;points=[];" vertex="1" connectable="0" parent="DLc_mvqa6RnwXc7KqKSA-47">
          <mxGeometry x="-0.2508" y="-3" relative="1" as="geometry">
            <mxPoint as="offset" />
          </mxGeometry>
        </mxCell>
        <mxCell id="DLc_mvqa6RnwXc7KqKSA-11" value="Faltan preguntas?" style="rhombus;whiteSpace=wrap;html=1;fontSize=10;" vertex="1" parent="DLc_mvqa6RnwXc7KqKSA-5">
          <mxGeometry x="605" y="9.370000000000001" width="70" height="71.25" as="geometry" />
        </mxCell>
        <mxCell id="DLc_mvqa6RnwXc7KqKSA-14" value="Consume PATCH" style="whiteSpace=wrap;html=1;fontSize=10;" vertex="1" parent="DLc_mvqa6RnwXc7KqKSA-5">
          <mxGeometry x="855" y="30" width="90" height="35" as="geometry" />
        </mxCell>
        <mxCell id="DLc_mvqa6RnwXc7KqKSA-44" value="Muestra pregunta n" style="whiteSpace=wrap;html=1;fontSize=10;" vertex="1" parent="DLc_mvqa6RnwXc7KqKSA-5">
          <mxGeometry x="720" y="29.990000000000002" width="90" height="30" as="geometry" />
        </mxCell>
        <mxCell id="DLc_mvqa6RnwXc7KqKSA-15" value="SPT Back End" style="swimlane;html=1;startSize=20;horizontal=0;" vertex="1" parent="DLc_mvqa6RnwXc7KqKSA-1">
          <mxGeometry x="20" y="220" width="1000" height="120" as="geometry" />
        </mxCell>
        <mxCell id="DLc_mvqa6RnwXc7KqKSA-16" value="Busca BD las preguntas de" style="rounded=0;whiteSpace=wrap;html=1;fontFamily=Helvetica;fontSize=10;fontColor=#000000;align=center;" vertex="1" parent="DLc_mvqa6RnwXc7KqKSA-15">
          <mxGeometry x="120" y="30" width="80" height="40" as="geometry" />
        </mxCell>
        <mxCell id="DLc_mvqa6RnwXc7KqKSA-17" value="Regresa Preguntas" style="whiteSpace=wrap;html=1;fontSize=10;" vertex="1" parent="DLc_mvqa6RnwXc7KqKSA-15">
          <mxGeometry x="230" y="30" width="80" height="40" as="geometry" />
        </mxCell>
        <mxCell id="DLc_mvqa6RnwXc7KqKSA-29" value="Guarda pregunta en BD" style="whiteSpace=wrap;html=1;fontSize=10;" vertex="1" parent="DLc_mvqa6RnwXc7KqKSA-15">
          <mxGeometry x="460" y="25" width="80" height="40" as="geometry" />
        </mxCell>
        <mxCell id="DLc_mvqa6RnwXc7KqKSA-33" value="Regresa respuesta del servicio" style="whiteSpace=wrap;html=1;fontSize=10;" vertex="1" parent="DLc_mvqa6RnwXc7KqKSA-15">
          <mxGeometry x="600" y="25" width="80" height="40" as="geometry" />
        </mxCell>
        <mxCell id="DLc_mvqa6RnwXc7KqKSA-50" value="Agrega respuesta a la BD" style="whiteSpace=wrap;html=1;fontSize=10;" vertex="1" parent="DLc_mvqa6RnwXc7KqKSA-15">
          <mxGeometry x="860" y="25" width="80" height="40" as="geometry" />
        </mxCell>
        <mxCell id="DLc_mvqa6RnwXc7KqKSA-22" style="edgeStyle=orthogonalEdgeStyle;rounded=0;orthogonalLoop=1;jettySize=auto;html=1;" edge="1" parent="DLc_mvqa6RnwXc7KqKSA-1" source="DLc_mvqa6RnwXc7KqKSA-16" target="DLc_mvqa6RnwXc7KqKSA-20">
          <mxGeometry relative="1" as="geometry" />
        </mxCell>
        <mxCell id="DLc_mvqa6RnwXc7KqKSA-23" value="" style="edgeStyle=orthogonalEdgeStyle;rounded=0;orthogonalLoop=1;jettySize=auto;html=1;" edge="1" parent="DLc_mvqa6RnwXc7KqKSA-1" source="DLc_mvqa6RnwXc7KqKSA-20" target="DLc_mvqa6RnwXc7KqKSA-17">
          <mxGeometry relative="1" as="geometry" />
        </mxCell>
        <mxCell id="DLc_mvqa6RnwXc7KqKSA-24" style="edgeStyle=orthogonalEdgeStyle;rounded=0;orthogonalLoop=1;jettySize=auto;html=1;exitX=0.5;exitY=0;exitDx=0;exitDy=0;entryX=0;entryY=0.5;entryDx=0;entryDy=0;" edge="1" parent="DLc_mvqa6RnwXc7KqKSA-1" source="DLc_mvqa6RnwXc7KqKSA-17" target="DLc_mvqa6RnwXc7KqKSA-7">
          <mxGeometry relative="1" as="geometry" />
        </mxCell>
        <mxCell id="DLc_mvqa6RnwXc7KqKSA-25" style="edgeStyle=orthogonalEdgeStyle;rounded=0;orthogonalLoop=1;jettySize=auto;html=1;entryX=0.5;entryY=0;entryDx=0;entryDy=0;" edge="1" parent="DLc_mvqa6RnwXc7KqKSA-1" source="DLc_mvqa6RnwXc7KqKSA-4" target="DLc_mvqa6RnwXc7KqKSA-8">
          <mxGeometry relative="1" as="geometry" />
        </mxCell>
        <mxCell id="DLc_mvqa6RnwXc7KqKSA-26" style="edgeStyle=orthogonalEdgeStyle;rounded=0;orthogonalLoop=1;jettySize=auto;html=1;exitX=0.5;exitY=0;exitDx=0;exitDy=0;entryX=0.5;entryY=1;entryDx=0;entryDy=0;" edge="1" parent="DLc_mvqa6RnwXc7KqKSA-1" source="DLc_mvqa6RnwXc7KqKSA-7" target="DLc_mvqa6RnwXc7KqKSA-4">
          <mxGeometry relative="1" as="geometry">
            <mxPoint x="375" y="70" as="targetPoint" />
          </mxGeometry>
        </mxCell>
        <mxCell id="DLc_mvqa6RnwXc7KqKSA-30" style="edgeStyle=orthogonalEdgeStyle;rounded=0;orthogonalLoop=1;jettySize=auto;html=1;entryX=0.5;entryY=0;entryDx=0;entryDy=0;" edge="1" parent="DLc_mvqa6RnwXc7KqKSA-1" source="DLc_mvqa6RnwXc7KqKSA-8" target="DLc_mvqa6RnwXc7KqKSA-29">
          <mxGeometry relative="1" as="geometry" />
        </mxCell>
        <mxCell id="DLc_mvqa6RnwXc7KqKSA-32" value="" style="edgeStyle=orthogonalEdgeStyle;rounded=0;orthogonalLoop=1;jettySize=auto;html=1;" edge="1" parent="DLc_mvqa6RnwXc7KqKSA-1" source="DLc_mvqa6RnwXc7KqKSA-29" target="DLc_mvqa6RnwXc7KqKSA-31">
          <mxGeometry relative="1" as="geometry" />
        </mxCell>
        <mxCell id="DLc_mvqa6RnwXc7KqKSA-34" style="edgeStyle=orthogonalEdgeStyle;rounded=0;orthogonalLoop=1;jettySize=auto;html=1;exitX=1;exitY=0.5;exitDx=0;exitDy=0;entryX=0.5;entryY=1;entryDx=0;entryDy=0;" edge="1" parent="DLc_mvqa6RnwXc7KqKSA-1" source="DLc_mvqa6RnwXc7KqKSA-31" target="DLc_mvqa6RnwXc7KqKSA-33">
          <mxGeometry relative="1" as="geometry" />
        </mxCell>
        <mxCell id="DLc_mvqa6RnwXc7KqKSA-46" style="edgeStyle=orthogonalEdgeStyle;rounded=0;orthogonalLoop=1;jettySize=auto;html=1;exitX=0.5;exitY=0;exitDx=0;exitDy=0;entryX=0;entryY=0.5;entryDx=0;entryDy=0;" edge="1" parent="DLc_mvqa6RnwXc7KqKSA-1" source="DLc_mvqa6RnwXc7KqKSA-33" target="DLc_mvqa6RnwXc7KqKSA-11">
          <mxGeometry relative="1" as="geometry" />
        </mxCell>
        <mxCell id="DLc_mvqa6RnwXc7KqKSA-49" style="edgeStyle=orthogonalEdgeStyle;rounded=0;orthogonalLoop=1;jettySize=auto;html=1;exitX=0.5;exitY=0;exitDx=0;exitDy=0;entryX=0.5;entryY=1;entryDx=0;entryDy=0;" edge="1" parent="DLc_mvqa6RnwXc7KqKSA-1" source="DLc_mvqa6RnwXc7KqKSA-44" target="DLc_mvqa6RnwXc7KqKSA-48">
          <mxGeometry relative="1" as="geometry" />
        </mxCell>
        <mxCell id="DLc_mvqa6RnwXc7KqKSA-51" style="edgeStyle=orthogonalEdgeStyle;rounded=0;orthogonalLoop=1;jettySize=auto;html=1;exitX=0.5;exitY=1;exitDx=0;exitDy=0;entryX=0.5;entryY=0;entryDx=0;entryDy=0;" edge="1" parent="DLc_mvqa6RnwXc7KqKSA-1" source="DLc_mvqa6RnwXc7KqKSA-50" target="DLc_mvqa6RnwXc7KqKSA-21">
          <mxGeometry relative="1" as="geometry" />
        </mxCell>
        <mxCell id="DLc_mvqa6RnwXc7KqKSA-19" value="BD Surveys" style="swimlane;html=1;startSize=20;horizontal=0;" vertex="1" parent="DLc_mvqa6RnwXc7KqKSA-1">
          <mxGeometry x="20" y="340" width="1000" height="120" as="geometry" />
        </mxCell>
        <mxCell id="DLc_mvqa6RnwXc7KqKSA-20" value="" style="shape=datastore;whiteSpace=wrap;html=1;" vertex="1" parent="DLc_mvqa6RnwXc7KqKSA-19">
          <mxGeometry x="145" y="40" width="30" height="40" as="geometry" />
        </mxCell>
        <mxCell id="DLc_mvqa6RnwXc7KqKSA-31" value="" style="shape=datastore;whiteSpace=wrap;html=1;" vertex="1" parent="DLc_mvqa6RnwXc7KqKSA-19">
          <mxGeometry x="485" y="35" width="30" height="40" as="geometry" />
        </mxCell>
        <mxCell id="DLc_mvqa6RnwXc7KqKSA-21" value="" style="shape=datastore;whiteSpace=wrap;html=1;" vertex="1" parent="DLc_mvqa6RnwXc7KqKSA-19">
          <mxGeometry x="885" y="25" width="30" height="40" as="geometry" />
        </mxCell>
        <mxCell id="DLc_mvqa6RnwXc7KqKSA-52" style="edgeStyle=orthogonalEdgeStyle;rounded=0;orthogonalLoop=1;jettySize=auto;html=1;exitX=0.5;exitY=1;exitDx=0;exitDy=0;entryX=0.5;entryY=0;entryDx=0;entryDy=0;" edge="1" parent="DLc_mvqa6RnwXc7KqKSA-1" source="DLc_mvqa6RnwXc7KqKSA-14" target="DLc_mvqa6RnwXc7KqKSA-50">
          <mxGeometry relative="1" as="geometry" />
        </mxCell>
        <mxCell id="DLc_mvqa6RnwXc7KqKSA-53" style="edgeStyle=orthogonalEdgeStyle;rounded=0;orthogonalLoop=1;jettySize=auto;html=1;exitX=1;exitY=0.5;exitDx=0;exitDy=0;entryX=0.5;entryY=0;entryDx=0;entryDy=0;" edge="1" parent="DLc_mvqa6RnwXc7KqKSA-1" source="DLc_mvqa6RnwXc7KqKSA-48" target="DLc_mvqa6RnwXc7KqKSA-14">
          <mxGeometry relative="1" as="geometry" />
        </mxCell>
      </root>
    </mxGraphModel>
  </diagram>
</mxfile>
